<svg width="42" height="42" viewBox="0 0 42 42" fill="none" xmlns="http://www.w3.org/2000/svg">
<g id="Branding/Logo/Generic-Logo">
<rect width="42" height="42" rx="3.5" fill="white"/>
<g id="Vector">
<path d="M17.7403 31.5326L21.0001 21L10.4678 24.2602C9.2281 24.6439 8.25748 25.6145 7.87375 26.8543L5.34884 35.0117C5.02585 36.0552 4.86436 36.5769 5.14394 36.8565C5.42353 37.1361 5.94528 36.9746 6.98878 36.6516L15.1462 34.1267C16.3859 33.743 17.3565 32.7724 17.7403 31.5326Z" fill="#F43F5E"/>
<path d="M31.5326 24.26L21.0001 21L24.2601 31.5325C24.6439 32.7722 25.6145 33.7428 26.8542 34.1266L35.0116 36.6515C36.0551 36.9745 36.5769 37.136 36.8565 36.8564C37.136 36.5768 36.9745 36.055 36.6516 35.0115L34.1266 26.8541C33.7429 25.6144 32.7723 24.6438 31.5326 24.26Z" fill="#D946EF"/>
<path d="M24.2602 10.4674L21.0001 21L31.5326 17.7398C32.7723 17.3561 33.743 16.3855 34.1267 15.1458L36.6516 6.98834C36.9746 5.94484 37.1361 5.42309 36.8565 5.14351C36.5769 4.86393 36.0552 5.02542 35.0117 5.34841L26.8542 7.87332C25.6145 8.25705 24.6439 9.22767 24.2602 10.4674Z" fill="#22D3EE"/>
<path d="M5.34841 6.98834C5.02542 5.94484 4.86393 5.42309 5.14351 5.14351C5.42309 4.86393 5.94484 5.02542 6.98834 5.34841L15.1458 7.87332C16.3855 8.25705 17.3561 9.22767 17.7398 10.4674L21.0001 21L10.4674 17.7398C9.22766 17.3561 8.25705 16.3855 7.87332 15.1458L5.34841 6.98834Z" fill="#6366F1"/>
</g>
</g>
</svg>
